# xmcd
#
# Track frame offsets:
#	150
#	16238
#	33238
#	55322
#	76708
#	89548
#	105977
#	125241
#	147805
#	164364
#	183458
#	195991
#	213316
#
# Disc length: 3096 seconds
#
# Revision: 0
# Processed by: cddbd v1.5.2PL0 Copyright (c) Steve Scherf et al.
# Submitted via: EasyCDDAExtractor 11.5.3.1
#
DISCID=a50c160d
DTITLE=Various Artist - American Pie
DYEAR=1999
DGENRE=
TTITLE0=Third Eye Blind - New Girl
TTITLE1=Tonic - You Wanted More
TTITLE2=blink-182 - Mutt
TTITLE3=Sugar Ray - Glory
TTITLE4=Super TransAtlantic - Super Down
TTITLE5=Dishwalla - Find Your Way Back Home
TTITLE6=Bic Runga - Good Morning Baby (feat. Dan Wilson)
TTITLE7=Shades Apart - Stranger by the Day
TTITLE8=Bachelor Number One - Summertime
TTITLE9=Goldfinger - Vintage Queen
TTITLE10=Bic Runga - Sway
TTITLE11=The Loose Nuts - Wishen
TTITLE12=The Atomic Fireballs - Man With the Hex
EXTD=
EXTT0=
EXTT1=
EXTT2=
EXTT3=
EXTT4=
EXTT5=
EXTT6=
EXTT7=
EXTT8=
EXTT9=
EXTT10=
EXTT11=
EXTT12=
PLAYORDER=
